<svg width="257" height="96" viewBox="0 0 257 96" fill="none" xmlns="http://www.w3.org/2000/svg">
<g clip-path="url(#clip0_1_16)">
<path d="M52 31.32C55.4 30.12 58.12 27.4 59.32 24H72L60 52C60 58.64 66.28 64 74 64C81.72 64 88 58.64 88 52L76 24H84V16H59.32C57.68 11.32 53.24 8 48 8C42.76 8 38.32 11.32 36.68 16H12V24H20L8 52C8 58.64 14.28 64 22 64C29.72 64 36 58.64 36 52L24 24H36.68C37.88 27.4 40.6 30.12 44 31.32V76H8V84H88V76H52V31.32ZM81.48 52H66.52L74 34.56L81.48 52ZM29.48 52H14.52L22 34.56L29.48 52ZM48 24C45.8 24 44 22.2 44 20C44 17.8 45.8 16 48 16C50.2 16 52 17.8 52 20C52 22.2 50.2 24 48 24Z" fill="black"/>
</g>
<path d="M106.31 26.2756C106.196 25.1297 105.708 24.2396 104.847 23.6051C103.985 22.9706 102.815 22.6534 101.338 22.6534C100.334 22.6534 99.4867 22.7955 98.7955 23.0795C98.1042 23.3542 97.5739 23.7377 97.2045 24.2301C96.8447 24.7225 96.6648 25.2812 96.6648 25.9062C96.6458 26.4271 96.7547 26.8816 96.9915 27.2699C97.2377 27.6581 97.5739 27.9943 98 28.2784C98.4261 28.553 98.9186 28.7945 99.4773 29.0028C100.036 29.2017 100.633 29.3722 101.267 29.5142L103.881 30.1392C105.15 30.4233 106.314 30.8021 107.375 31.2756C108.436 31.7491 109.354 32.3314 110.131 33.0227C110.907 33.714 111.509 34.5284 111.935 35.4659C112.37 36.4034 112.593 37.4782 112.602 38.6903C112.593 40.4706 112.138 42.0142 111.239 43.321C110.348 44.6184 109.061 45.6269 107.375 46.3466C105.699 47.0568 103.677 47.4119 101.31 47.4119C98.9612 47.4119 96.9157 47.0521 95.1733 46.3324C93.4403 45.6127 92.0862 44.5473 91.1108 43.1364C90.1449 41.7159 89.6383 39.9593 89.5909 37.8665H95.5426C95.6089 38.8419 95.8883 39.6562 96.3807 40.3097C96.8826 40.9536 97.5502 41.4413 98.3835 41.7727C99.2263 42.0947 100.178 42.2557 101.239 42.2557C102.28 42.2557 103.185 42.1042 103.952 41.8011C104.728 41.4981 105.33 41.0767 105.756 40.5369C106.182 39.9972 106.395 39.3769 106.395 38.6761C106.395 38.0227 106.201 37.4735 105.812 37.0284C105.434 36.5833 104.875 36.2045 104.136 35.892C103.407 35.5795 102.512 35.2955 101.452 35.0398L98.2841 34.2443C95.8314 33.6477 93.8949 32.715 92.4744 31.446C91.054 30.1771 90.3485 28.4678 90.358 26.3182C90.3485 24.5568 90.8172 23.018 91.7642 21.7017C92.7206 20.3854 94.0322 19.358 95.6989 18.6193C97.3655 17.8807 99.2595 17.5114 101.381 17.5114C103.54 17.5114 105.424 17.8807 107.034 18.6193C108.653 19.358 109.913 20.3854 110.812 21.7017C111.712 23.018 112.176 24.5426 112.205 26.2756H106.31ZM122.847 47.4119C121.455 47.4119 120.215 47.1705 119.126 46.6875C118.037 46.1951 117.175 45.4706 116.54 44.5142C115.915 43.5483 115.603 42.3456 115.603 40.9062C115.603 39.6941 115.826 38.6761 116.271 37.8523C116.716 37.0284 117.322 36.3655 118.089 35.8636C118.856 35.3617 119.727 34.983 120.702 34.7273C121.687 34.4716 122.719 34.2917 123.799 34.1875C125.068 34.0549 126.091 33.9318 126.867 33.8182C127.644 33.6951 128.207 33.5152 128.558 33.2784C128.908 33.0417 129.083 32.6913 129.083 32.2273V32.142C129.083 31.2424 128.799 30.5464 128.231 30.054C127.672 29.5616 126.877 29.3153 125.844 29.3153C124.755 29.3153 123.889 29.5568 123.245 30.0398C122.601 30.5133 122.175 31.1098 121.967 31.8295L116.37 31.375C116.654 30.0492 117.213 28.9034 118.046 27.9375C118.879 26.9621 119.954 26.214 121.271 25.6932C122.596 25.1629 124.13 24.8977 125.873 24.8977C127.085 24.8977 128.245 25.0398 129.353 25.3239C130.47 25.608 131.46 26.0483 132.322 26.6449C133.193 27.2415 133.879 28.0085 134.381 28.946C134.883 29.8741 135.134 30.9867 135.134 32.2841V47H129.396V43.9744H129.225C128.875 44.6562 128.406 45.2576 127.819 45.7784C127.232 46.2898 126.526 46.6922 125.702 46.9858C124.879 47.2699 123.927 47.4119 122.847 47.4119ZM124.58 43.2358C125.47 43.2358 126.256 43.0606 126.938 42.7102C127.62 42.3504 128.155 41.8674 128.543 41.2614C128.932 40.6553 129.126 39.9687 129.126 39.2017V36.8864C128.936 37.0095 128.676 37.1231 128.344 37.2273C128.022 37.322 127.658 37.4119 127.251 37.4972C126.844 37.5729 126.436 37.6439 126.029 37.7102C125.622 37.767 125.253 37.8191 124.921 37.8665C124.211 37.9706 123.591 38.1364 123.06 38.3636C122.53 38.5909 122.118 38.8987 121.825 39.2869C121.531 39.6657 121.384 40.1392 121.384 40.7074C121.384 41.5312 121.683 42.161 122.279 42.5966C122.885 43.0227 123.652 43.2358 124.58 43.2358ZM139.942 47V17.9091H145.994V28.8466H146.178C146.443 28.2595 146.827 27.6629 147.329 27.0568C147.84 26.4413 148.503 25.9299 149.317 25.5227C150.141 25.1061 151.164 24.8977 152.386 24.8977C153.977 24.8977 155.444 25.3144 156.789 26.1477C158.134 26.9716 159.209 28.2169 160.013 29.8835C160.818 31.5407 161.221 33.6193 161.221 36.1193C161.221 38.553 160.828 40.608 160.042 42.2841C159.265 43.9508 158.205 45.215 156.86 46.0767C155.525 46.929 154.029 47.3551 152.371 47.3551C151.197 47.3551 150.198 47.161 149.374 46.7727C148.56 46.3845 147.892 45.8968 147.371 45.3097C146.851 44.7131 146.453 44.1117 146.178 43.5057H145.908V47H139.942ZM145.866 36.0909C145.866 37.3883 146.046 38.5199 146.406 39.4858C146.765 40.4517 147.286 41.2045 147.968 41.7443C148.65 42.2746 149.478 42.5398 150.454 42.5398C151.439 42.5398 152.272 42.2699 152.954 41.7301C153.636 41.1809 154.152 40.4233 154.502 39.4574C154.862 38.482 155.042 37.3598 155.042 36.0909C155.042 34.8314 154.867 33.7235 154.516 32.767C154.166 31.8106 153.65 31.0625 152.968 30.5227C152.286 29.983 151.448 29.7131 150.454 29.7131C149.469 29.7131 148.636 29.9735 147.954 30.4943C147.281 31.0152 146.765 31.7538 146.406 32.7102C146.046 33.6667 145.866 34.7936 145.866 36.0909ZM165.259 47V25.1818H171.31V47H165.259ZM168.298 22.3693C167.399 22.3693 166.627 22.071 165.983 21.4744C165.348 20.8684 165.031 20.1439 165.031 19.3011C165.031 18.4678 165.348 17.7528 165.983 17.1562C166.627 16.5502 167.399 16.2472 168.298 16.2472C169.198 16.2472 169.965 16.5502 170.599 17.1562C171.243 17.7528 171.565 18.4678 171.565 19.3011C171.565 20.1439 171.243 20.8684 170.599 21.4744C169.965 22.071 169.198 22.3693 168.298 22.3693ZM182.208 34.3864V47H176.157V25.1818H181.924V29.0312H182.18C182.663 27.7623 183.472 26.7585 184.609 26.0199C185.745 25.2718 187.123 24.8977 188.742 24.8977C190.257 24.8977 191.578 25.2292 192.705 25.892C193.832 26.5549 194.708 27.5019 195.333 28.733C195.958 29.9545 196.271 31.4129 196.271 33.108V47H190.219V34.1875C190.229 32.8523 189.888 31.8106 189.197 31.0625C188.505 30.3049 187.554 29.9261 186.342 29.9261C185.527 29.9261 184.808 30.1013 184.183 30.4517C183.567 30.8021 183.084 31.3134 182.734 31.9858C182.393 32.6487 182.218 33.4489 182.208 34.3864ZM210.898 47.4261C208.691 47.4261 206.783 46.9574 205.173 46.0199C203.573 45.0729 202.337 43.7566 201.466 42.071C200.595 40.3759 200.159 38.411 200.159 36.1761C200.159 33.9223 200.595 31.9527 201.466 30.267C202.337 28.572 203.573 27.2557 205.173 26.3182C206.783 25.3712 208.691 24.8977 210.898 24.8977C213.104 24.8977 215.008 25.3712 216.608 26.3182C218.218 27.2557 219.458 28.572 220.33 30.267C221.201 31.9527 221.636 33.9223 221.636 36.1761C221.636 38.411 221.201 40.3759 220.33 42.071C219.458 43.7566 218.218 45.0729 216.608 46.0199C215.008 46.9574 213.104 47.4261 210.898 47.4261ZM210.926 42.7386C211.93 42.7386 212.768 42.4545 213.44 41.8864C214.113 41.3087 214.619 40.5227 214.96 39.5284C215.311 38.5341 215.486 37.4025 215.486 36.1335C215.486 34.8646 215.311 33.733 214.96 32.7386C214.619 31.7443 214.113 30.9583 213.44 30.3807C212.768 29.803 211.93 29.5142 210.926 29.5142C209.913 29.5142 209.061 29.803 208.369 30.3807C207.688 30.9583 207.171 31.7443 206.821 32.7386C206.48 33.733 206.31 34.8646 206.31 36.1335C206.31 37.4025 206.48 38.5341 206.821 39.5284C207.171 40.5227 207.688 41.3087 208.369 41.8864C209.061 42.4545 209.913 42.7386 210.926 42.7386Z" fill="#2E4ECE"/>
<path d="M126.528 54.9091H134.114L142.125 74.4545H142.466L150.477 54.9091H158.062V84H152.097V65.0653H151.855L144.327 83.858H140.264L132.736 64.9943H132.494V84H126.528V54.9091ZM172.874 84.4261C170.668 84.4261 168.76 83.9574 167.15 83.0199C165.549 82.0729 164.314 80.7566 163.442 79.071C162.571 77.3759 162.136 75.411 162.136 73.1761C162.136 70.9223 162.571 68.9527 163.442 67.267C164.314 65.572 165.549 64.2557 167.15 63.3182C168.76 62.3712 170.668 61.8977 172.874 61.8977C175.081 61.8977 176.984 62.3712 178.585 63.3182C180.194 64.2557 181.435 65.572 182.306 67.267C183.177 68.9527 183.613 70.9223 183.613 73.1761C183.613 75.411 183.177 77.3759 182.306 79.071C181.435 80.7566 180.194 82.0729 178.585 83.0199C176.984 83.9574 175.081 84.4261 172.874 84.4261ZM172.903 79.7386C173.906 79.7386 174.745 79.4545 175.417 78.8864C176.089 78.3087 176.596 77.5227 176.937 76.5284C177.287 75.5341 177.462 74.4025 177.462 73.1335C177.462 71.8646 177.287 70.733 176.937 69.7386C176.596 68.7443 176.089 67.9583 175.417 67.3807C174.745 66.803 173.906 66.5142 172.903 66.5142C171.889 66.5142 171.037 66.803 170.346 67.3807C169.664 67.9583 169.148 68.7443 168.798 69.7386C168.457 70.733 168.286 71.8646 168.286 73.1335C168.286 74.4025 168.457 75.5341 168.798 76.5284C169.148 77.5227 169.664 78.3087 170.346 78.8864C171.037 79.4545 171.889 79.7386 172.903 79.7386ZM193.599 71.3864V84H187.548V62.1818H193.315V66.0312H193.57C194.053 64.7623 194.863 63.7585 195.999 63.0199C197.136 62.2718 198.513 61.8977 200.133 61.8977C201.648 61.8977 202.969 62.2292 204.096 62.892C205.223 63.5549 206.099 64.5019 206.724 65.733C207.349 66.9545 207.661 68.4129 207.661 70.108V84H201.61V71.1875C201.62 69.8523 201.279 68.8106 200.587 68.0625C199.896 67.3049 198.944 66.9261 197.732 66.9261C196.918 66.9261 196.198 67.1013 195.573 67.4517C194.958 67.8021 194.475 68.3134 194.124 68.9858C193.783 69.6487 193.608 70.4489 193.599 71.3864ZM222.374 84.4261C220.129 84.4261 218.197 83.9716 216.578 83.0625C214.968 82.1439 213.728 80.8466 212.857 79.1705C211.985 77.4848 211.55 75.4915 211.55 73.1903C211.55 70.946 211.985 68.9763 212.857 67.2812C213.728 65.5862 214.954 64.2652 216.536 63.3182C218.126 62.3712 219.992 61.8977 222.132 61.8977C223.571 61.8977 224.911 62.1297 226.152 62.5938C227.402 63.0483 228.491 63.7348 229.419 64.6534C230.357 65.572 231.086 66.7273 231.607 68.1193C232.127 69.5019 232.388 71.1212 232.388 72.9773V74.6392H213.964V70.8892H226.692C226.692 70.018 226.502 69.2462 226.124 68.5739C225.745 67.9015 225.219 67.3759 224.547 66.9972C223.884 66.6089 223.112 66.4148 222.232 66.4148C221.313 66.4148 220.499 66.6278 219.788 67.054C219.088 67.4706 218.538 68.0341 218.141 68.7443C217.743 69.4451 217.539 70.2263 217.53 71.0881V74.6534C217.53 75.733 217.729 76.6657 218.126 77.4517C218.534 78.2377 219.107 78.8438 219.845 79.2699C220.584 79.696 221.46 79.9091 222.473 79.9091C223.145 79.9091 223.761 79.8144 224.32 79.625C224.878 79.4356 225.357 79.1515 225.754 78.7727C226.152 78.3939 226.455 77.9299 226.663 77.3807L232.26 77.75C231.976 79.0947 231.393 80.2689 230.513 81.2727C229.642 82.267 228.515 83.0436 227.132 83.6023C225.759 84.1515 224.173 84.4261 222.374 84.4261ZM239.487 92.1818C238.719 92.1818 238 92.1203 237.327 91.9972C236.665 91.8835 236.115 91.7367 235.68 91.5568L237.043 87.0398C237.754 87.2576 238.393 87.3759 238.961 87.3949C239.539 87.4138 240.036 87.2813 240.452 86.9972C240.879 86.7131 241.224 86.2301 241.489 85.5483L241.844 84.625L234.018 62.1818H240.381L244.898 78.2045H245.126L249.685 62.1818H256.092L247.612 86.358C247.204 87.5322 246.65 88.5549 245.95 89.4261C245.258 90.3068 244.382 90.9839 243.322 91.4574C242.261 91.9403 240.983 92.1818 239.487 92.1818Z" fill="#2E4ECE"/>
<defs>
<clipPath id="clip0_1_16">
<rect width="96" height="96" fill="white"/>
</clipPath>
</defs>
</svg>
